#!OML:ASF H:\Dans Jumps\Project 1\Capture day 1\Session 1\subject.ASF
:FULLY-SPECIFIED
:DEGREES
523
root 0.412805 17.7275 -1.04189 7.1292 0.311391 -1.55898
lowerback -3.83318 -0.507356 0.309003
upperback 2.329 -0.759435 1.50185
thorax 4.57193 -0.39255 1.31995
lowerneck -11.984 0.3099 -1.88713
upperneck 36.9202 0.682098 0.820084
head 14.7673 0.136508 0.783555
rclavicle 7.95139e-015 -7.15625e-015
rhumerus -26.5693 -16.7131 -79.2117
rradius 22.7476
rwrist 36.5155
rhand -21.5062 -27.1606
rfingers 7.12502
rthumb 4.88559 -57.0843
lclavicle 7.95139e-015 -7.15625e-015
lhumerus -25.1916 -1.37463 89.3144
lradius 17.2358
lwrist 8.22209
lhand -23.9793 -5.2656
lfingers 7.12502
lthumb 2.49732 24.6995
rfemur -11.7976 -2.35719 20.3223
rtibia 21.1661
rfoot -14.7821 0.986772
rtoes 17.8536
lfemur -8.41053 7.32994 -17.986
ltibia 17.4917
lfoot -11.481 7.12898
ltoes 2.32443
524
root 0.416474 17.727 -1.04431 7.11619 0.315077 -1.56835
lowerback -3.82383 -0.505832 0.322157
upperback 2.32248 -0.75844 1.51354
thorax 4.55981 -0.391813 1.32481
lowerneck -11.9912 0.307086 -1.90123
upperneck 36.9471 0.683236 0.817581
head 14.7819 0.134526 0.785534
rclavicle -2.73329e-015 -5.36719e-015
rhumerus -26.5704 -16.7207 -79.2111
rradius 22.7487
rwrist 36.5193
rhand -21.5083 -27.147
rfingers 7.12502
rthumb 4.88357 -57.0707
lclavicle -2.73329e-015 -5.36719e-015
lhumerus -25.213 -1.33398 89.2884
lradius 17.1554
lwrist 8.13288
lhand -24.0465 -5.59476
lfingers 7.12502
lthumb 2.43242 24.3711
rfemur -11.7957 -2.35407 20.3196
rtibia 21.175
rfoot -14.7798 0.974413
rtoes 17.8304
lfemur -8.4217 7.34255 -17.9875
ltibia 17.5253
lfoot -11.497 7.1126
ltoes 2.37683
525
root 0.420155 17.7265 -1.04673 7.10608 0.315385 -1.57692
lowerback -3.81395 -0.501849 0.336994
upperback 2.31225 -0.754104 1.52336
thorax 4.54341 -0.38932 1.32706
lowerneck -11.9917 0.301802 -1.91857
upperneck 36.9729 0.679906 0.819245
head 14.7943 0.130774 0.789075
rclavicle 5.31749e-015 -4.77083e-015
rhumerus -26.5759 -16.7212 -79.2138
rradius 22.7483
rwrist 36.5149
rhand -21.5039 -27.1335
rfingers 7.12502
rthumb 4.88784 -57.0572
lclavicle 5.31749e-015 -4.77083e-015
lhumerus -25.2345 -1.2873 89.2579
lradius 17.0688
lwrist 8.02708
lhand -24.1007 -5.93875
lfingers 7.12502
lthumb 2.38008 24.0277
rfemur -11.7971 -2.34797 20.3157
rtibia 21.1835
rfoot -14.778 0.961663
rtoes 17.8077
lfemur -8.4354 7.35581 -17.9907
ltibia 17.5584
lfoot -11.5132 7.10002
ltoes 2.43661
526
root 0.423842 17.7262 -1.04924 7.1036 0.31795 -1.58566
lowerback -3.81702 -0.498111 0.357015
upperback 2.30167 -0.750369 1.52888
thorax 4.53388 -0.386898 1.3218
lowerneck -11.9832 0.298881 -1.92177
upperneck 36.9966 0.677521 0.816415
head 14.8038 0.128804 0.7883
rclavicle 7.45443e-016 8.34896e-015
rhumerus -26.5826 -16.703 -79.2293
rradius 22.7571
rwrist 36.4755
rhand -21.4879 -27.0795
rfingers 7.12502
rthumb 4.90322 -57.0027
lclavicle 7.45443e-016 8.34896e-015
lhumerus -25.2491 -1.24215 89.22
lradius 16.9828
lwrist 7.91827
lhand -24.1036 -6.17549
lfingers 7.12502
lthumb 2.37733 23.791
rfemur -11.8072 -2.34241 20.3128
rtibia 21.1918
rfoot -14.7762 0.945656
rtoes 17.7787
lfemur -8.45779 7.37064 -17.9947
ltibia 17.5893
lfoot -11.5282 7.08484
ltoes 2.5011
527
root 0.427434 17.7258 -1.05182 7.10027 0.316618 -1.59316
lowerback -3.81793 -0.492021 0.374925
upperback 2.28858 -0.74326 1.53347
thorax 4.52046 -0.382844 1.31705
lowerneck -11.9631 0.293973 -1.9267
upperneck 37.0162 0.671271 0.816502
head 14.8087 0.125399 0.788335
rclavicle 2.98177e-015 -8.54774e-015
rhumerus -26.5937 -16.6765 -79.2475
rradius 22.7668
rwrist 36.426
rhand -21.466 -27.0343
rfingers 7.12502
rthumb 4.92443 -56.957
lclavicle 2.98177e-015 -8.54774e-015
lhumerus -25.2664 -1.20706 89.184
lradius 16.9085
lwrist 7.82751
lhand -24.0587 -6.31379
lfingers 7.12502
lthumb 2.42066 23.6522
rfemur -11.817 -2.32908 20.3082
rtibia 21.1996
rfoot -14.7739 0.926313
rtoes 17.7511
lfemur -8.47825 7.38833 -18.0003
ltibia 17.6185
lfoot -11.5425 7.07141
ltoes 2.56533
528
root 0.431049 17.7256 -1.05444 7.09933 0.31788 -1.59755
lowerback -3.82278 -0.483902 0.39195
upperback 2.27544 -0.733306 1.53493
thorax 4.50914 -0.377357 1.30975
lowerneck -11.9491 0.287331 -1.92825
upperneck 37.0418 0.66056 0.819715
head 14.8179 0.120958 0.788474
rclavicle 5.71506e-015 -1.17283e-014
rhumerus -26.6046 -16.6634 -79.2625
rradius 22.7749
rwrist 36.3793
rhand -21.4271 -26.9663
rfingers 7.12502
rthumb 4.96199 -56.8882
lclavicle 5.71506e-015 -1.17283e-014
lhumerus -25.284 -1.22052 89.1648
lradius 16.851
lwrist 7.7795
lhand -24.0875 -6.38895
lfingers 7.12502
lthumb 2.39284 23.5774
rfemur -11.8281 -2.31953 20.3004
rtibia 21.2055
rfoot -14.7714 0.909445
rtoes 17.7286
lfemur -8.50186 7.40708 -18.0097
ltibia 17.6471
lfoot -11.5566 7.05448
ltoes 2.62494
529
root 0.434482 17.7254 -1.05708 7.09476 0.317637 -1.60169
lowerback -3.82403 -0.475897 0.403854
upperback 2.26288 -0.723277 1.53891
thorax 4.49648 -0.372034 1.30796
lowerneck -11.9339 0.280454 -1.93018
upperneck 37.066 0.65056 0.820209
head 14.8262 0.116417 0.787641
rclavicle -4.32357e-015 5.56597e-015
rhumerus -26.6168 -16.6386 -79.2798
rradius 22.788
rwrist 36.3304
rhand -21.3888 -26.9296
rfingers 7.12502
rthumb 4.99896 -56.8507
lclavicle -4.32357e-015 5.56597e-015
lhumerus -25.3021 -1.2175 89.1442
lradius 16.8134
lwrist 7.73194
lhand -24.132 -6.43696
lfingers 7.12502
lthumb 2.34989 23.5298
rfemur -11.8359 -2.30482 20.2927
rtibia 21.2116
rfoot -14.768 0.88884
rtoes 17.7059
lfemur -8.52042 7.42703 -18.0183
ltibia 17.6737
lfoot -11.5711 7.03599
ltoes 2.6824
530
root 0.437704 17.7252 -1.05972 7.08549 0.318495 -1.61208
lowerback -3.82147 -0.469023 0.416126
upperback 2.25352 -0.714997 1.54815
thorax 4.4851 -0.367668 1.31128
lowerneck -11.922 0.275555 -1.93143
upperneck 37.0857 0.645501 0.815057
head 14.833 0.113355 0.785085
rclavicle 7.50412e-015 -2.66371e-014
rhumerus -26.6233 -16.6115 -79.2967
rradius 22.7999
rwrist 36.292
rhand -21.3605 -26.9198
rfingers 7.12502
rthumb 5.0263 -56.8402
lclavicle 7.50412e-015 -2.66371e-014
lhumerus -25.3184 -1.20829 89.1264
lradius 16.7906
lwrist 7.68733
lhand -24.2134 -6.49696
lfingers 7.12502
lthumb 2.27125 23.4707
rfemur -11.8383 -2.28702 20.2929
rtibia 21.218
rfoot -14.7643 0.864891
rtoes 17.6839
lfemur -8.53277 7.44636 -18.0181
ltibia 17.6978
lfoot -11.5856 7.01553
ltoes 2.73567
531
root 0.440746 17.7248 -1.06227 7.06889 0.318957 -1.61607
lowerback -3.81318 -0.464756 0.41664
upperback 2.24907 -0.709618 1.55962
thorax 4.47581 -0.365153 1.32332
lowerneck -11.9174 0.273305 -1.93488
upperneck 37.1036 0.646563 0.806198
head 14.8407 0.112094 0.782358
rclavicle -3.13086e-015 -4.77083e-015
rhumerus -26.6225 -16.5705 -79.3178
rradius 22.8141
rwrist 36.252
rhand -21.3475 -26.9436
rfingers 7.12502
rthumb 5.03883 -56.8637
lclavicle -3.13086e-015 -4.77083e-015
lhumerus -25.3289 -1.16639 89.1026
lradius 16.7744
lwrist 7.62379
lhand -24.3008 -6.60303
lfingers 7.12502
lthumb 2.18687 23.3655
rfemur -11.8332 -2.2681 20.2864
rtibia 21.2266
rfoot -14.7624 0.839251
rtoes 17.6608
lfemur -8.53483 7.46481 -18.0231
ltibia 17.7182
lfoot -11.5987 6.99389
ltoes 2.80015
532
root 0.443656 17.7244 -1.06468 7.04737 0.32011 -1.61921
lowerback -3.80207 -0.463477 0.413081
upperback 2.24882 -0.708129 1.57357
thorax 4.46946 -0.364747 1.33994
lowerneck -11.9188 0.273882 -1.93736
upperneck 37.1181 0.653736 0.791793
head 14.848 0.112823 0.778098
rclavicle -1.01877e-014 3.43897e-014
rhumerus -26.615 -16.5204 -79.3426
rradius 22.8286
rwrist 36.2103
rhand -21.3468 -26.9899
rfingers 7.12502
rthumb 5.03947 -56.91
lclavicle -1.01877e-014 3.43897e-014
lhumerus -25.3331 -1.09687 89.0716
lradius 16.7651
lwrist 7.55227
lhand -24.3153 -6.65778
lfingers 7.12502
lthumb 2.17286 23.3109
rfemur -11.823 -2.24878 20.2796
rtibia 21.2377
rfoot -14.7621 0.810658
rtoes 17.6242
lfemur -8.52903 7.48444 -18.0274
ltibia 17.7349
lfoot -11.6112 6.96913
ltoes 2.86633
533
root 0.446546 17.724 -1.06689 7.02038 0.320026 -1.61397
lowerback -3.78777 -0.464482 0.399226
upperback 2.25185 -0.709106 1.5873
thorax 4.46488 -0.365885 1.36194
lowerneck -11.9226 0.276635 -1.94321
upperneck 37.1293 0.665468 0.776509
head 14.8541 0.114914 0.774764
rclavicle -5.86415e-015 1.61016e-014
rhumerus -26.6028 -16.467 -79.3694
rradius 22.8426
rwrist 36.1665
rhand -21.3559 -27.0544
rfingers 7.12502
rthumb 5.03067 -56.9746
lclavicle -5.86415e-015 1.61016e-014
lhumerus -25.3336 -1.01112 89.0376
lradius 16.7623
lwrist 7.48267
lhand -24.2507 -6.63431
lfingers 7.12502
lthumb 2.23527 23.3337
rfemur -11.8079 -2.23142 20.263
rtibia 21.2531
rfoot -14.7655 0.783934
rtoes 17.5872
lfemur -8.51293 7.50473 -18.0403
ltibia 17.7461
lfoot -11.6222 6.94389
ltoes 2.93192
534
root 0.449523 17.7236 -1.0691 6.99952 0.325257 -1.60599
lowerback -3.7804 -0.467302 0.390368
upperback 2.2551 -0.712667 1.5956
thorax 4.46439 -0.368069 1.37527
lowerneck -11.933 0.279652 -1.94302
upperneck 37.1424 0.674357 0.765639
head 14.8628 0.117185 0.771794
rclavicle 6.4605e-016 -1.39149e-015
rhumerus -26.5933 -16.429 -79.3979
rradius 22.8632
rwrist 36.1264
rhand -21.3553 -27.0745
rfingers 7.12502
rthumb 5.03131 -56.9948
lclavicle 6.4605e-016 -1.39149e-015
lhumerus -25.3262 -0.93622 89.0006
lradius 16.7552
lwrist 7.42375
lhand -24.1443 -6.56306
lfingers 7.12502
lthumb 2.33804 23.4039
rfemur -11.7995 -2.21877 20.244
rtibia 21.2696
rfoot -14.7687 0.756245
rtoes 17.5509
lfemur -8.50473 7.52296 -18.0568
ltibia 17.7572
lfoot -11.6318 6.91532
ltoes 2.9872
535
root 0.452541 17.7232 -1.07115 6.97654 0.328385 -1.59432
lowerback -3.77216 -0.470795 0.378006
upperback 2.25847 -0.71688 1.60297
thorax 4.46357 -0.370668 1.38957
lowerneck -11.9354 0.282489 -1.95131
upperneck 37.1493 0.681562 0.764243
head 14.8666 0.118879 0.773912
rclavicle 6.75868e-015 -7.95139e-016
rhumerus -26.5862 -16.3894 -79.4268
rradius 22.8856
rwrist 36.0859
rhand -21.3549 -27.1009
rfingers 7.12502
rthumb 5.0317 -57.0211
lclavicle 6.75868e-015 -7.95139e-016
lhumerus -25.3186 -0.878159 88.9698
lradius 16.7634
lwrist 7.39913
lhand -23.9983 -6.38795
lfingers 7.12502
lthumb 2.479 23.5774
rfemur -11.7896 -2.20676 20.2202
rtibia 21.2873
rfoot -14.771 0.731155
rtoes 17.511
lfemur -8.49315 7.54371 -18.0775
ltibia 17.7687
lfoot -11.6419 6.88628
ltoes 3.03573
